<svg xmlns="http://www.w3.org/2000/svg" viewBox="0 0 64 64" fill="none">
  <defs>
    <linearGradient id="favFrame" x1="0" x2="1" y1="0" y2="1">
      <stop offset="0%" stop-color="#7c5cff" />
      <stop offset="45%" stop-color="#7aa3ff" />
      <stop offset="80%" stop-color="#22d3ee" />
      <stop offset="100%" stop-color="#5eead4" />
    </linearGradient>
    <radialGradient id="favCore" cx="0.38" cy="0.32" r="0.82">
      <stop offset="0%" stop-color="rgba(255,255,255,0.92)" />
      <stop offset="55%" stop-color="rgba(124,92,255,0.6)" />
      <stop offset="100%" stop-color="rgba(8,11,28,0.95)" />
    </radialGradient>
    <linearGradient id="favCross" x1="0" x2="1" y1="0" y2="1">
      <stop offset="0%" stop-color="#7AA3FF" />
      <stop offset="50%" stop-color="#22D3EE" />
      <stop offset="100%" stop-color="#5EEAD4" />
    </linearGradient>
    <radialGradient id="favPulse" cx="0.5" cy="0.5" r="0.6">
      <stop offset="0%" stop-color="rgba(120,240,255,0.45)" />
      <stop offset="100%" stop-color="rgba(120,240,255,0)" />
    </radialGradient>
  </defs>
  <rect x="4" y="4" width="56" height="56" rx="18" fill="#050816" stroke="url(#favFrame)" stroke-width="2.5" />
  <circle cx="32" cy="32" r="22" fill="url(#favCore)" />
  <circle cx="32" cy="32" r="16" fill="url(#favPulse)" opacity="0.6">
    <animate attributeName="r" values="14;16.5;14" dur="5s" repeatCount="indefinite" />
  </circle>
  <path d="M28 12h8c1.1 0 2 0.9 2 2v12h12c1.1 0 2 0.9 2 2v8c0 1.1-0.9 2-2 2H38v12c0 1.1-0.9 2-2 2h-8c-1.1 0-2-0.9-2-2V38H16c-1.1 0-2-0.9-2-2v-8c0-1.1 0.9-2 2-2h12V14c0-1.1 0.9-2 2-2z" fill="url(#favCross)" opacity="0.9">
    <animate attributeName="opacity" values="0.75;1;0.75" dur="4.6s" repeatCount="indefinite" />
  </path>
  <path d="M16 44c6-11 26-11 32 0" stroke="url(#favFrame)" stroke-width="3" stroke-linecap="round" stroke-linejoin="round" opacity="0.8">
    <animate attributeName="stroke-dashoffset" values="100;0;100" dur="5.2s" repeatCount="indefinite" />
  </path>
  <circle cx="46" cy="20" r="4" fill="#78f0ff">
    <animate attributeName="r" values="3.2;5;3.2" dur="3.2s" repeatCount="indefinite" />
  </circle>
  <circle cx="24" cy="48" r="3" fill="#ff6b9c" opacity="0.75">
    <animate attributeName="opacity" values="0.4;1;0.4" dur="3.6s" repeatCount="indefinite" />
  </circle>
</svg>
