<svg width="20" height="20" viewBox="0 0 24 24" xmlns="http://www.w3.org/2000/svg" role="img" aria-hidden="true">
  <rect width="24" height="24" rx="4" fill="#0057FF" />
  <path d="M8.334 17.667H6V9.667h2.334v8zM7.167 8.667a1.334 1.334 0 110-2.667 1.334 1.334 0 010 2.667zM18 17.667h-2.333v-4.4c0-1.053-.38-1.773-1.32-1.773-.72 0-1.148.487-1.338.957-.07.17-.087.407-.087.645v4.57h-2.333s.03-7.41 0-8.167H13v1.156c.31-.48.864-1.167 2.102-1.167 1.535 0 2.898 1 2.898 3.147v5.03z" fill="#FFFFFF" />
</svg>
