<svg xmlns="http://www.w3.org/2000/svg" style="display:none">
  <symbol id="twitter" viewBox="0 0 24 24">
    <path fill="currentColor" d="M22 5.8c-.7.3-1.4.6-2.2.7.8-.5 1.4-1.2 1.7-2.1-.7.4-1.6.8-2.5.9A3.8 3.8 0 0 0 12 8.6c0 .3 0 .6.1.9-3.2-.2-6-1.7-7.9-4a3.8 3.8 0 0 0 .6 5.1c-.6 0-1.2-.2-1.7-.5v.1c0 1.8 1.3 3.4 3.1 3.7-.3.1-.6.1-1 .1-.2 0-.5 0-.7-.1.5 1.6 2 2.8 3.8 2.8A7.6 7.6 0 0 1 2 19.5 10.7 10.7 0 0 0 7.8 21c6.4 0 9.9-5.3 9.9-9.9v-.5c.7-.5 1.3-1.2 1.8-1.9Z"/>
  </symbol>
  <symbol id="linkedin" viewBox="0 0 24 24">
    <path fill="currentColor" d="M4 4h4v16H4zM10 10h4v10h-4zM8 4a2 2 0 1 1 0 4 2 2 0 0 1 0-4zm10 6a4 4 0 0 0-4 4v6h4v-6a1 1 0 1 1 2 0v6h4v-7a3 3 0 0 0-3-3h-3z"/>
  </symbol>
  <symbol id="youtube" viewBox="0 0 24 24">
    <path fill="currentColor" d="M22 12s0-4-1-5-5-1-9-1-8 0-9 1-1 5-1 5 0 4 1 5 5 1 9 1 8 0 9-1 1-5 1-5z"/>
    <path fill="#fff" d="M10 9l5 3-5 3z"/>
  </symbol>
  <symbol id="whatsapp" viewBox="0 0 24 24">
    <path fill="currentColor" d="M20.5 3.5A11 11 0 0 0 3.1 19L2 22l3-.9a11 11 0 1 0 15.6-17.6ZM12 20a8 8 0 1 1 0-16 8 8 0 0 1 0 16Zm4.5-5.6-.9-.2c-.2 0-.4 0-.6.3-.2.3-.8 1-1 1.1-.1.1-.3.2-.5.1-1.4-.6-2.5-1.6-3.3-2.9-.2-.3 0-.4.1-.6l.3-.3c.2-.2.3-.3.3-.6 0-.2-.5-1.2-.7-1.7-.2-.5-.4-.4-.6-.4h-.5c-.2 0-.6.1-1 .5s-1.2 1.1-1.2 2.6 1.2 3 1.4 3.2c.2.3 2.4 3.6 5.7 4.9.8.3 1.4.5 1.9.6.8.2 1.5.2 2.1.1.7-.1 2.1-.9 2.4-1.8.3-1 .3-1.7.2-1.9-.1-.1-.3-.1-.5-.2Z"/>
  </symbol>
  <symbol id="mail" viewBox="0 0 24 24">
    <path fill="currentColor" d="M2 6a2 2 0 0 1 2-2h16a2 2 0 0 1 2 2v12a2 2 0 0 1-2 2H4a2 2 0 0 1-2-2zm2 0 8 6 8-6H4zm16 12V8l-8 6-8-6v10h16z"/>
  </symbol>
</svg>
