<svg width="20" height="20" viewBox="0 0 24 24" xmlns="http://www.w3.org/2000/svg" role="img" aria-hidden="true">
  <rect width="24" height="24" rx="4" fill="#00BFA6" />
  <path d="M18.5 8.242a4.119 4.119 0 01-1.178.323 2.059 2.059 0 00.905-1.136 4.11 4.11 0 01-1.307.499 2.055 2.055 0 00-3.496 1.874 5.834 5.834 0 01-4.237-2.148 2.055 2.055 0 00.635 2.743 2.045 2.045 0 01-.931-.257v.026a2.054 2.054 0 001.648 2.014 2.057 2.057 0 01-.927.035 2.056 2.056 0 001.918 1.425A4.121 4.121 0 017 14.326a5.813 5.813 0 003.148.923c3.778 0 5.845-3.13 5.845-5.845 0-.089-.002-.177-.006-.264A4.176 4.176 0 0018.5 8.242z" fill="#FFFFFF" />
</svg>
